<?xml version="1.0" encoding="iso-8859-1"?>
<!-- Generator: Adobe Illustrator 16.0.0, SVG Export Plug-In . SVG Version: 6.00 Build 0)  -->
<!DOCTYPE svg PUBLIC "-//W3C//DTD SVG 1.1//EN" "http://www.w3.org/Graphics/SVG/1.1/DTD/svg11.dtd">
<svg version="1.1" id="Capa_1" xmlns="http://www.w3.org/2000/svg" xmlns:xlink="http://www.w3.org/1999/xlink" x="0px" y="0px"
	 width="328.504px" height="328.504px" viewBox="0 0 328.504 328.504" style="enable-background:new 0 0 328.504 328.504;"
	 xml:space="preserve">
<g>
	<g>
		<path d="M164.252,118.721c16.121-9.336,34.778-14.768,54.754-14.768c18.91,0,36.692,4.796,52.218,13.231
			c0.011-0.714,0.105-1.411,0.105-2.128c0-60.476-49.027-109.503-109.503-109.503c-60.474,0-109.5,49.027-109.5,109.503
			c0,1.68,0.179,3.314,0.253,4.978c16.601-10.141,36.046-16.086,56.921-16.086C129.471,103.953,148.134,109.385,164.252,118.721z"/>
		<path d="M109.5,213.448c0-0.718,0.093-1.408,0.108-2.125c-32.74-17.804-55.247-51.841-57.029-91.289
			C21.091,139.264,0,173.85,0,213.448c0,60.476,49.027,109.503,109.5,109.503c19.971,0,38.634-5.432,54.752-14.771
			C131.554,289.243,109.5,253.959,109.5,213.448z"/>
		<path d="M271.224,117.184c-0.749,38.702-21.558,72.402-52.477,91.286c0.079,1.661,0.259,3.296,0.259,4.979
			c0,40.505-22.054,75.79-54.754,94.731c16.121,9.34,34.778,14.771,54.754,14.771c60.471,0,109.498-49.027,109.498-109.503
			C328.504,171.888,305.343,135.73,271.224,117.184z"/>
		<path d="M164.252,118.721c-32.121,18.61-53.882,52.999-54.644,92.602c15.52,8.438,33.312,13.236,52.218,13.236
			c20.877,0,40.315-5.949,56.921-16.09C217.023,170.074,195.592,136.878,164.252,118.721z"/>
	</g>
</g>
<g>
</g>
<g>
</g>
<g>
</g>
<g>
</g>
<g>
</g>
<g>
</g>
<g>
</g>
<g>
</g>
<g>
</g>
<g>
</g>
<g>
</g>
<g>
</g>
<g>
</g>
<g>
</g>
<g>
</g>
</svg>
